<svg width="24" height="20" viewBox="0 0 24 20" fill="none" xmlns="http://www.w3.org/2000/svg">
<g clip-path="url(#clip0_406_8686)">
<path d="M6.64457 13.8776H9.03739C9.03739 14.3495 9.02672 14.8082 9.03739 15.2616C9.07874 16.6323 10.0457 17.5896 11.4129 17.5936C13.7906 17.6033 16.1683 17.6033 18.546 17.5936C18.8525 17.5971 19.1567 17.5404 19.4413 17.4267C19.7258 17.313 19.9851 17.1446 20.2043 16.931C20.4235 16.7174 20.5984 16.4628 20.7189 16.1819C20.8395 15.9009 20.9033 15.5991 20.9068 15.2935C20.9308 11.7712 20.9308 8.24926 20.9068 4.7278C20.9059 4.42227 20.8443 4.11994 20.7254 3.83834C20.6065 3.55673 20.4327 3.30145 20.2141 3.08727C19.9955 2.87309 19.7365 2.70427 19.452 2.5906C19.1674 2.47693 18.8631 2.42066 18.5567 2.42506C16.2012 2.40778 13.8457 2.41177 11.4876 2.42506C9.97905 2.42506 9.05873 3.35573 9.03072 4.87139C9.03072 5.1785 9.03072 5.48695 9.03072 5.85257H6.7246C6.07238 2.27483 8.87334 -0.090392 11.5076 -0.00264351C13.839 0.0784573 16.1758 0.00400329 18.5073 0.0172985C21.1936 0.0332528 23.2809 2.06609 23.309 4.75705C23.3436 8.2333 23.3436 11.7109 23.309 15.1898C23.2863 17.9432 21.1842 19.9761 18.4206 19.988C16.0883 19.9951 13.755 19.9951 11.4209 19.988C8.72128 19.9774 6.66058 17.9273 6.64457 15.2496C6.64324 14.8162 6.64457 14.3775 6.64457 13.8776Z" fill="#006BB2"/>
<path d="M0 9.92759L5.57658 5.24634V7.87879H12.7417V11.7145H5.61926V14.7312L0 9.92759Z" fill="#006BB2"/>
</g>
<defs>
<clipPath id="clip0_406_8686">
<rect width="23.3333" height="20" rx="5" fill="white"/>
</clipPath>
</defs>
</svg>
