<svg width="21" height="17" viewBox="0 0 21 17" fill="none" xmlns="http://www.w3.org/2000/svg">
<g clip-path="url(#clip0_302_7497)">
<path d="M12.0285 12.582H9.01325C9.00634 12.7305 8.99056 12.8929 8.99056 13.0553C8.99056 14.1837 8.98267 15.3121 8.99944 16.4397C9.00536 16.8331 8.85543 16.9965 8.42539 16.9965C6.64999 16.9841 4.8746 16.9841 3.0992 16.9965C2.69382 16.9965 2.54883 16.8387 2.5508 16.4675C2.56165 13.8236 2.5508 11.1779 2.57447 8.53776C2.58885 8.3313 2.68702 8.13793 2.84867 7.99766C5.24447 6.09248 7.65803 4.20679 10.0558 2.3044C10.3823 2.04548 10.6131 2.04456 10.9435 2.3044C13.3275 4.19844 15.7312 6.07207 18.1112 7.97075C18.306 8.14244 18.4232 8.37799 18.4386 8.62871C18.4633 11.2271 18.4505 13.8255 18.4643 16.4192C18.4643 16.8378 18.3075 16.9992 17.8597 16.9965C16.102 16.9822 14.344 16.9822 12.5857 16.9965C12.1518 16.9965 12.0078 16.8313 12.0137 16.4397C12.0314 15.3261 12.0245 14.2125 12.0265 13.0989L12.0285 12.582Z" fill="white"/>
<path d="M3.10298 1.92465H5.72564V3.56906C5.9308 3.42058 6.05409 3.33706 6.17146 3.24519C7.40635 2.27543 8.63729 1.29639 9.87909 0.337769C10.463 -0.111383 10.5389 -0.115095 11.1031 0.337769C14.0483 2.70788 16.9869 5.0851 19.919 7.46943C20.1803 7.68102 20.4368 7.89817 20.6992 8.10882C20.9615 8.31948 21.1302 8.57283 20.8727 8.86422C20.6153 9.15561 20.3184 9.02291 20.06 8.81411L15.2832 4.94064C13.7642 3.71011 12.2453 2.48083 10.7263 1.25278C10.6652 1.20266 10.5971 1.15997 10.4916 1.08481C9.88204 1.57479 9.27151 2.06199 8.6659 2.55383C6.10144 4.63131 3.54026 6.71095 0.982369 8.79276C0.704223 9.02012 0.414242 9.17138 0.132151 8.85865C-0.14994 8.54591 0.083821 8.29628 0.348158 8.07728C1.1747 7.39334 2.00717 6.7159 2.81399 6.01062C2.97878 5.85482 3.07795 5.6481 3.09312 5.42877C3.1158 4.27434 3.10298 3.1162 3.10298 1.92465Z" fill="white"/>
</g>
<defs>
<clipPath id="clip0_302_7497">
<rect width="21" height="17" fill="white"/>
</clipPath>
</defs>
</svg>
